<svg width="66" height="70" viewBox="0 0 66 70" fill="none" xmlns="http://www.w3.org/2000/svg">
<path d="M65.7624 21.7459L60.8596 13.254C60.5679 12.7489 59.9486 12.5356 59.4078 12.7539L52.1908 15.6673C51.5913 15.9092 51.3015 16.5912 51.5435 17.1907C51.7855 17.7904 52.4674 18.0802 53.067 17.8379L59.3408 15.3053L63.2264 22.0356L57.9029 26.1972C57.5207 26.496 57.3626 26.9993 57.5049 27.4629C58.9794 32.2629 59.0357 37.5534 57.5049 42.5368C57.3626 43.0004 57.5207 43.5037 57.9029 43.8025L63.2264 47.9641L59.3408 54.6944L53.067 52.1618C52.6171 51.9799 52.1021 52.0948 51.7717 52.45C48.2482 56.2386 43.7373 58.8454 38.7268 59.9886C38.2535 60.0966 37.896 60.4856 37.8282 60.9665L36.8857 67.6591H29.1143L28.1718 60.9668C28.104 60.4861 27.7465 60.097 27.2732 59.9889C22.2626 58.8457 17.7518 56.2388 14.2283 52.4503C13.8979 52.0951 13.3829 51.9802 12.933 52.1621L6.65921 54.6946L2.77343 47.9644L8.09697 43.8028C8.47912 43.504 8.63728 43.0007 8.49492 42.5371C7.02044 37.737 6.96411 32.4466 8.49492 27.4632C8.63728 26.9995 8.47912 26.4962 8.09697 26.1975L2.77343 22.0359L6.65921 15.3056L12.933 17.8382C13.3829 18.0201 13.8981 17.9052 14.2283 17.55C17.7518 13.7614 22.2627 11.1546 27.2732 10.0114C27.7465 9.90339 28.104 9.51436 28.1718 9.03345L29.1143 2.3412H36.8857L37.8282 9.03345C37.896 9.51421 38.2535 9.90324 38.7268 10.0114C41.4704 10.6373 44.0783 11.7088 46.4778 13.1956C47.0277 13.5358 47.7489 13.3663 48.0892 12.8171C48.4296 12.2676 48.2602 11.546 47.7108 11.2055C45.3219 9.72534 42.7434 8.62232 40.0357 7.92092L39.062 1.00747C38.9807 0.429991 38.4863 0.00028801 37.903 0.00028801H28.0973C27.514 0.00028801 27.0196 0.429991 26.9383 1.00747L25.9646 7.92092C21.0694 9.18765 16.6412 11.7467 13.074 15.3707L6.59249 12.7543C6.05159 12.5358 5.43242 12.7492 5.14068 13.2544L0.237781 21.7464C-0.0539556 22.2516 0.0709907 22.8945 0.530542 23.2538L6.03096 27.5538C4.69284 32.4094 4.69254 37.5903 6.03096 42.4471L0.530542 46.7471C0.0709907 47.1064 -0.0539556 47.7493 0.237781 48.2545L5.14068 56.7465C5.43242 57.2517 6.05145 57.465 6.59249 57.2465L13.074 54.6301C16.6412 58.2542 21.0694 60.8132 25.9646 62.0799L26.9383 68.9934C27.0195 69.5703 27.5138 70 28.0972 70H37.9028C38.4862 70 38.9805 69.5703 39.0619 68.9928L40.0355 62.0794C44.9307 60.8126 49.359 58.2536 52.9261 54.6295L59.4078 57.246C59.9487 57.4641 60.568 57.2512 60.8596 56.7459L65.7624 48.2539C66.0541 47.7487 65.9292 47.1058 65.4696 46.7465L59.9692 42.4465C61.3073 37.5909 61.3076 32.41 59.9692 27.5532L65.4696 23.2532C65.9292 22.894 66.0541 22.2513 65.7624 21.7459ZM31.0827 29.4321L36.935 39.3809C37.2627 39.9382 37.0768 40.6556 36.5196 40.9833C35.9626 41.3109 35.2452 41.1251 34.9173 40.5679L29.065 30.619C28.7373 30.0618 28.9232 29.3444 29.4804 29.0167C30.0378 28.689 30.7551 28.8751 31.0827 29.4321ZM26.5122 39.487C26.0553 39.9438 25.3143 39.9439 24.857 39.487L21.1976 35.8276C20.7408 35.3707 20.7405 34.6295 21.1976 34.1723L24.857 30.5128C25.3143 30.0558 26.0552 30.0559 26.5122 30.5128C26.9694 30.97 26.9694 31.7111 26.5122 32.1681L23.6804 34.9998L26.5122 37.8314C26.9694 38.2888 26.9694 39.0298 26.5122 39.487ZM40.1691 30.17C40.4686 30.17 40.7683 30.2843 40.9968 30.5128L44.6562 34.1724C45.113 34.6293 45.1133 35.3705 44.6562 35.8277L40.9968 39.4872C40.5397 39.9441 39.7987 39.9441 39.3416 39.4872C38.8844 39.03 38.8844 38.2889 39.3416 37.8318L42.1734 35.0002L39.3416 32.1684C38.6017 31.4283 39.1358 30.17 40.1691 30.17ZM26.1503 16.3184C28.3844 15.4992 30.7007 15.0914 33.0113 15.0916C47.4702 15.0923 57.1605 30.1896 51.0531 43.3671C46.4396 53.3213 34.5877 57.6666 24.6329 53.0532C11.9775 47.1878 9.1081 30.3238 19.2298 20.6298C19.6966 20.1825 20.4377 20.1986 20.8847 20.6655C21.3318 21.1322 21.3158 21.8732 20.849 22.3203C11.9241 30.8685 14.4448 45.7513 25.6171 50.9293C34.401 55 44.8583 51.1662 48.929 42.3827C52.9998 33.5995 49.1659 23.1417 40.3824 19.0709C36.1274 17.0988 31.3591 16.9019 26.9557 18.5162C26.3489 18.7384 25.6764 18.427 25.4538 17.8202C25.2316 17.2132 25.5432 16.5408 26.1503 16.3184Z" fill="#0082F4"/>
</svg>
